<svg width="160" height="30" viewBox="0 0 160 30" fill="none" xmlns="http://www.w3.org/2000/svg">
<path d="M94 14.5806C96.2091 14.5806 98.0601 12.7461 97.3694 10.6477C97.2716 10.3503 97.1625 10.0563 97.0424 9.76624C96.4101 8.23989 95.4834 6.85301 94.3152 5.68479C93.147 4.51656 91.7601 3.58988 90.2338 2.95764C89.9437 2.83749 89.6497 2.72842 89.3523 2.63056C87.2539 1.93994 85.4194 3.79086 85.4194 6V10.5806C85.4194 12.7898 87.2102 14.5806 89.4194 14.5806H94Z" fill="#DD6F6F"/>
<path d="M84.5806 5.99999C84.5806 3.79085 82.7461 1.93994 80.6477 2.63056C80.3503 2.72842 80.0563 2.83749 79.7662 2.95764C78.2399 3.58988 76.853 4.51656 75.6848 5.68478C74.5166 6.853 73.5899 8.23988 72.9576 9.76624C72.8375 10.0563 72.7284 10.3503 72.6306 10.6477C71.9399 12.7461 73.7909 14.5806 76 14.5806H80.5806C82.7898 14.5806 84.5806 12.7898 84.5806 10.5806V5.99999Z" fill="#3F7E7E"/>
<path d="M76 15.4194C73.7909 15.4194 71.9399 17.2539 72.6306 19.3523C72.7284 19.6497 72.8375 19.9437 72.9576 20.2338C73.5899 21.7601 74.5166 23.147 75.6848 24.3152C76.853 25.4834 78.2399 26.4101 79.7662 27.0424C80.0563 27.1625 80.3503 27.2716 80.6477 27.3694C82.7461 28.0601 84.5806 26.2091 84.5806 24V19.4194C84.5806 17.2102 82.7898 15.4194 80.5806 15.4194H76Z" fill="#667099"/>
<path d="M85.4194 24C85.4194 26.2091 87.2539 28.0601 89.3523 27.3694C89.6497 27.2716 89.9437 27.1625 90.2338 27.0424C91.7601 26.4101 93.147 25.4834 94.3152 24.3152C95.4834 23.147 96.4101 21.7601 97.0424 20.2338C97.1625 19.9437 97.2716 19.6497 97.3694 19.3523C98.0601 17.2539 96.2091 15.4194 94 15.4194H89.4194C87.2102 15.4194 85.4194 17.2102 85.4194 19.4194V24Z" fill="#996699"/>
<path d="M0.339478 21V10.664H1.99248L2.13498 11.804H2.24898C2.63531 11.3733 3.07864 11.0503 3.57898 10.835C4.08564 10.6133 4.62714 10.5025 5.20348 10.5025C5.79248 10.5025 6.31814 10.626 6.78048 10.873C7.24281 11.1137 7.60698 11.5063 7.87298 12.051C8.13898 12.5957 8.27198 13.324 8.27198 14.236V21H6.32448V14.388C6.32448 13.5773 6.16614 13.0168 5.84948 12.7065C5.53914 12.3962 5.12431 12.241 4.60498 12.241C4.34531 12.241 4.07614 12.2853 3.79748 12.374C3.51881 12.4563 3.25281 12.5893 2.99948 12.773C2.74614 12.9567 2.52131 13.1973 2.32498 13.495V21H0.339478ZM12.205 21V14.388C12.205 13.5773 12.0403 13.0168 11.711 12.7065C11.3816 12.3962 10.9573 12.241 10.438 12.241C10.172 12.241 9.89014 12.2853 9.59248 12.374C9.30114 12.4627 9.01614 12.6115 8.73748 12.8205C8.46515 13.0295 8.23081 13.3113 8.03448 13.666L7.57848 12.2125C8.07248 11.5855 8.61714 11.1453 9.21248 10.892C9.81414 10.6323 10.4 10.5025 10.97 10.5025C11.5906 10.5025 12.1416 10.626 12.623 10.873C13.1106 11.12 13.4906 11.5222 13.763 12.0795C14.0416 12.6305 14.181 13.3683 14.181 14.293V21H12.205Z" fill="#744E74"/>
<path d="M21.3774 21.19C20.2374 21.19 19.2842 21.0063 18.5179 20.639C17.7579 20.2717 17.1879 19.6953 16.8079 18.91C16.4279 18.1183 16.2379 17.0923 16.2379 15.832C16.2379 14.6413 16.412 13.6533 16.7604 12.868C17.115 12.0763 17.6185 11.4842 18.2709 11.0915C18.9232 10.6988 19.7022 10.5025 20.6079 10.5025C21.4945 10.5025 22.245 10.6988 22.8594 11.0915C23.48 11.4842 23.9487 12.0795 24.2654 12.8775C24.5884 13.6692 24.7499 14.6698 24.7499 15.8795V16.4495H17.3399V15.1955H23.2584L22.8784 15.4045C22.8784 14.5305 22.7897 13.8338 22.6124 13.3145C22.435 12.7952 22.1754 12.4247 21.8334 12.203C21.4914 11.975 21.0765 11.861 20.5889 11.861C20.1012 11.861 19.68 11.9718 19.3254 12.1935C18.977 12.4152 18.7079 12.7857 18.5179 13.305C18.3279 13.8243 18.2329 14.5242 18.2329 15.4045V16.1455C18.2329 17.0005 18.35 17.6845 18.5844 18.1975C18.8187 18.7042 19.186 19.0683 19.6864 19.29C20.1867 19.5117 20.8359 19.6225 21.6339 19.6225C22.0265 19.6225 22.4382 19.5908 22.8689 19.5275C23.2995 19.4578 23.7492 19.3597 24.2179 19.233V20.791C23.7049 20.9303 23.2172 21.0317 22.7549 21.095C22.2925 21.1583 21.8334 21.19 21.3774 21.19Z" fill="#744E74"/>
<path d="M30.8386 21.1805C29.724 21.1805 28.8595 20.8987 28.2451 20.335C27.6371 19.765 27.3331 18.8625 27.3331 17.6275V10.664L27.6751 6.94001H29.3186V17.3045C29.3186 18.1215 29.4833 18.6947 29.8126 19.024C30.142 19.347 30.6423 19.5085 31.3136 19.5085C31.5036 19.5085 31.6936 19.4958 31.8836 19.4705C32.0736 19.4452 32.2858 19.4072 32.5201 19.3565V20.9905C32.2605 21.0475 31.985 21.0918 31.6936 21.1235C31.4086 21.1615 31.1236 21.1805 30.8386 21.1805ZM25.4711 12.2695V10.664H32.3966V12.2695H25.4711Z" fill="#744E74"/>
<path d="M34.1276 21V5.64801H36.1131V11.785H36.2176C36.6166 11.3607 37.0757 11.0408 37.5951 10.8255C38.1207 10.6102 38.6907 10.5025 39.3051 10.5025C39.9321 10.5025 40.4926 10.626 40.9866 10.873C41.4869 11.12 41.8796 11.519 42.1646 12.07C42.4559 12.621 42.6016 13.3588 42.6016 14.2835V21H40.6161V14.3975C40.6161 13.5868 40.4387 13.0295 40.0841 12.7255C39.7294 12.4152 39.2576 12.26 38.6686 12.26C38.3772 12.26 38.0764 12.3012 37.7661 12.3835C37.4557 12.4595 37.1549 12.5862 36.8636 12.7635C36.5786 12.9408 36.3284 13.1752 36.1131 13.4665V21H34.1276Z" fill="#744E74"/>
<path d="M49.2431 21.19C48.3121 21.19 47.5014 21 46.8111 20.62C46.1271 20.24 45.5951 19.6573 45.2151 18.872C44.8351 18.0867 44.6451 17.0797 44.6451 15.851C44.6451 14.616 44.8319 13.6058 45.2056 12.8205C45.5793 12.0352 46.1081 11.4525 46.7921 11.0725C47.4824 10.6925 48.2994 10.5025 49.2431 10.5025C50.1868 10.5025 51.0006 10.6925 51.6846 11.0725C52.3749 11.4525 52.9069 12.0352 53.2806 12.8205C53.6543 13.6058 53.8411 14.6128 53.8411 15.8415C53.8411 17.0638 53.6511 18.0708 53.2711 18.8625C52.8974 19.6542 52.3654 20.24 51.6751 20.62C50.9848 21 50.1741 21.19 49.2431 21.19ZM49.2431 19.6225C49.7751 19.6225 50.2343 19.5085 50.6206 19.2805C51.0069 19.0462 51.3046 18.6567 51.5136 18.112C51.7226 17.561 51.8271 16.8105 51.8271 15.8605C51.8271 14.8978 51.7226 14.141 51.5136 13.59C51.3046 13.039 51.0069 12.6495 50.6206 12.4215C50.2343 12.1872 49.7751 12.07 49.2431 12.07C48.7111 12.07 48.2519 12.184 47.8656 12.412C47.4793 12.64 47.1816 13.0295 46.9726 13.5805C46.7636 14.1252 46.6591 14.8725 46.6591 15.8225C46.6591 16.7852 46.7604 17.542 46.9631 18.093C47.1721 18.644 47.4698 19.0367 47.8561 19.271C48.2488 19.5053 48.7111 19.6225 49.2431 19.6225Z" fill="#744E74"/>
<path d="M59.6968 21.1805C58.9431 21.1805 58.2528 21.0095 57.6258 20.6675C57.0051 20.3255 56.508 19.7808 56.1343 19.0335C55.7606 18.2798 55.5738 17.2823 55.5738 16.041C55.5738 14.8123 55.7765 13.7895 56.1818 12.9725C56.5871 12.1492 57.1856 11.5317 57.9773 11.12C58.7753 10.7083 59.757 10.5025 60.9223 10.5025C61.1883 10.5025 61.4543 10.5152 61.7203 10.5405C61.9863 10.5595 62.2301 10.5848 62.4518 10.6165V5.64801H64.4373V21H62.7558L62.6323 19.8885H62.5183C62.2143 20.2685 61.8216 20.5788 61.3403 20.8195C60.8653 21.0602 60.3175 21.1805 59.6968 21.1805ZM60.2098 19.518C60.6278 19.518 61.0363 19.4293 61.4353 19.252C61.8343 19.0747 62.1731 18.796 62.4518 18.416V12.2315C62.2428 12.1808 61.999 12.1428 61.7203 12.1175C61.448 12.0858 61.1756 12.07 60.9033 12.07C59.8076 12.07 58.9811 12.3645 58.4238 12.9535C57.8665 13.5425 57.5878 14.5178 57.5878 15.8795C57.5878 16.8168 57.6986 17.5515 57.9203 18.0835C58.142 18.6092 58.4491 18.9797 58.8418 19.195C59.2408 19.4103 59.6968 19.518 60.2098 19.518Z" fill="#744E74"/>
<path d="M108.94 21.1805C108.186 21.1805 107.496 21.0095 106.869 20.6675C106.248 20.3255 105.751 19.7808 105.377 19.0335C105.004 18.2798 104.817 17.2823 104.817 16.041C104.817 14.8123 105.02 13.7895 105.425 12.9725C105.83 12.1492 106.429 11.5317 107.22 11.12C108.018 10.7083 109 10.5025 110.165 10.5025C110.431 10.5025 110.697 10.5152 110.963 10.5405C111.229 10.5595 111.473 10.5848 111.695 10.6165V5.64801H113.68V21H111.999L111.875 19.8885H111.761C111.457 20.2685 111.065 20.5788 110.583 20.8195C110.108 21.0602 109.561 21.1805 108.94 21.1805ZM109.453 19.518C109.871 19.518 110.279 19.4293 110.678 19.252C111.077 19.0747 111.416 18.796 111.695 18.416V12.2315C111.486 12.1808 111.242 12.1428 110.963 12.1175C110.691 12.0858 110.419 12.07 110.146 12.07C109.051 12.07 108.224 12.3645 107.667 12.9535C107.11 13.5425 106.831 14.5178 106.831 15.8795C106.831 16.8168 106.942 17.5515 107.163 18.0835C107.385 18.6092 107.692 18.9797 108.085 19.195C108.484 19.4103 108.94 19.518 109.453 19.518Z" fill="#744E74"/>
<path d="M120.978 21.19C119.838 21.19 118.885 21.0063 118.118 20.639C117.358 20.2717 116.788 19.6953 116.408 18.91C116.028 18.1183 115.838 17.0923 115.838 15.832C115.838 14.6413 116.013 13.6533 116.361 12.868C116.716 12.0763 117.219 11.4842 117.871 11.0915C118.524 10.6988 119.303 10.5025 120.208 10.5025C121.095 10.5025 121.846 10.6988 122.46 11.0915C123.081 11.4842 123.549 12.0795 123.866 12.8775C124.189 13.6692 124.35 14.6698 124.35 15.8795V16.4495H116.94V15.1955H122.859L122.479 15.4045C122.479 14.5305 122.39 13.8338 122.213 13.3145C122.036 12.7952 121.776 12.4247 121.434 12.203C121.092 11.975 120.677 11.861 120.189 11.861C119.702 11.861 119.281 11.9718 118.926 12.1935C118.578 12.4152 118.308 12.7857 118.118 13.305C117.928 13.8243 117.833 14.5242 117.833 15.4045V16.1455C117.833 17.0005 117.951 17.6845 118.185 18.1975C118.419 18.7042 118.787 19.0683 119.287 19.29C119.787 19.5117 120.436 19.6225 121.234 19.6225C121.627 19.6225 122.039 19.5908 122.469 19.5275C122.9 19.4578 123.35 19.3597 123.818 19.233V20.791C123.305 20.9303 122.818 21.0317 122.355 21.095C121.893 21.1583 121.434 21.19 120.978 21.19Z" fill="#744E74"/>
<path d="M129.022 21.19C128.483 21.19 127.964 21.152 127.464 21.076C126.963 21.0063 126.482 20.9018 126.02 20.7625V19.233C126.526 19.3787 127.023 19.4895 127.511 19.5655C128.005 19.6352 128.505 19.67 129.012 19.67C129.842 19.67 130.437 19.537 130.798 19.271C131.165 19.005 131.349 18.6313 131.349 18.15C131.349 17.7447 131.245 17.4375 131.036 17.2285C130.827 17.0132 130.469 16.8517 129.962 16.744L128.48 16.4495C127.524 16.2532 126.837 15.9207 126.419 15.452C126.007 14.977 125.801 14.3563 125.801 13.59C125.801 12.6843 126.156 11.9433 126.865 11.367C127.581 10.7907 128.673 10.5025 130.143 10.5025C130.599 10.5025 131.042 10.531 131.473 10.588C131.903 10.6387 132.305 10.7147 132.679 10.816V12.3455C132.267 12.2315 131.859 12.1492 131.454 12.0985C131.048 12.0478 130.627 12.0225 130.19 12.0225C129.557 12.0225 129.056 12.0922 128.689 12.2315C128.328 12.3645 128.068 12.545 127.91 12.773C127.758 13.001 127.682 13.2575 127.682 13.5425C127.682 13.8908 127.78 14.179 127.977 14.407C128.179 14.635 128.531 14.806 129.031 14.92L130.513 15.205C131.457 15.395 132.144 15.718 132.575 16.174C133.012 16.6237 133.23 17.2538 133.23 18.0645C133.23 19.0272 132.869 19.7903 132.147 20.354C131.431 20.9113 130.39 21.19 129.022 21.19Z" fill="#744E74"/>
<path d="M135.175 21V10.664H137.161V21H135.175ZM136.173 8.65001C135.742 8.65001 135.416 8.54868 135.194 8.34601C134.973 8.14334 134.862 7.86468 134.862 7.51001C134.862 7.14268 134.973 6.85768 135.194 6.65501C135.416 6.45234 135.742 6.35101 136.173 6.35101C136.61 6.35101 136.936 6.45234 137.151 6.65501C137.373 6.85768 137.484 7.14268 137.484 7.51001C137.484 7.86468 137.373 8.14334 137.151 8.34601C136.936 8.54868 136.61 8.65001 136.173 8.65001Z" fill="#744E74"/>
<path d="M143.186 25.37C142.685 25.37 142.153 25.332 141.59 25.256C141.032 25.18 140.507 25.0692 140.013 24.9235V23.3085C140.564 23.4732 141.093 23.5935 141.599 23.6695C142.112 23.7518 142.597 23.793 143.053 23.793C144.136 23.793 144.931 23.5682 145.437 23.1185C145.95 22.6688 146.207 21.8993 146.207 20.81V19.9075H146.102C145.798 20.2685 145.409 20.5598 144.934 20.7815C144.459 21.0032 143.914 21.114 143.3 21.114C142.59 21.114 141.935 20.9462 141.333 20.6105C140.732 20.2685 140.247 19.727 139.88 18.986C139.512 18.2387 139.329 17.257 139.329 16.041C139.329 14.2043 139.785 12.8237 140.697 11.899C141.615 10.968 142.97 10.5025 144.763 10.5025C145.143 10.5025 145.532 10.5247 145.931 10.569C146.337 10.607 146.732 10.664 147.119 10.74C147.505 10.8097 147.863 10.8983 148.192 11.006V20.4775C148.192 22.2128 147.774 23.4605 146.938 24.2205C146.109 24.9868 144.858 25.37 143.186 25.37ZM143.965 19.4515C144.376 19.4515 144.782 19.3692 145.181 19.2045C145.586 19.0398 145.928 18.7833 146.207 18.435V12.26C145.998 12.203 145.751 12.1587 145.466 12.127C145.187 12.089 144.899 12.07 144.601 12.07C143.544 12.07 142.736 12.3645 142.179 12.9535C141.621 13.5425 141.343 14.5115 141.343 15.8605C141.343 16.7978 141.454 17.5262 141.675 18.0455C141.903 18.5648 142.214 18.929 142.606 19.138C142.999 19.347 143.452 19.4515 143.965 19.4515Z" fill="#744E74"/>
<path d="M150.873 21V10.664H152.526L152.668 11.7945H152.782C153.188 11.3765 153.663 11.0567 154.207 10.835C154.758 10.6133 155.341 10.5025 155.955 10.5025C156.614 10.5025 157.197 10.626 157.703 10.873C158.216 11.12 158.618 11.5222 158.91 12.0795C159.201 12.6305 159.347 13.3683 159.347 14.293V21H157.361V14.3975C157.361 13.5868 157.187 13.0263 156.839 12.716C156.49 12.3993 156.015 12.241 155.414 12.241C155.135 12.241 154.841 12.2822 154.53 12.3645C154.22 12.4468 153.919 12.5767 153.628 12.754C153.336 12.9313 153.08 13.1657 152.858 13.457V21H150.873Z" fill="#744E74"/>
</svg>
